<mxfile host="app.diagrams.net" agent="Mozilla/5.0 (Windows NT 10.0; Win64; x64) AppleWebKit/537.36 (KHTML, like Gecko) Chrome/131.0.0.0 Safari/537.36" version="26.0.2">
  <diagram name="Página-1" id="0qtDPg-XPkaElGB9iw3Y">
    <mxGraphModel dx="880" dy="434" grid="1" gridSize="10" guides="1" tooltips="1" connect="1" arrows="1" fold="1" page="1" pageScale="1" pageWidth="827" pageHeight="1169" math="0" shadow="0">
      <root>
        <mxCell id="0" />
        <mxCell id="1" parent="0" />
        <mxCell id="zEi2aZbb0SGyR5O4OHdj-27" value="&lt;font style=&quot;color: rgb(255, 128, 0);&quot;&gt;Entrada&lt;/font&gt;" style="text;html=1;align=center;verticalAlign=middle;whiteSpace=wrap;rounded=0;" vertex="1" parent="1">
          <mxGeometry x="40" y="310" width="60" height="30" as="geometry" />
        </mxCell>
        <mxCell id="zEi2aZbb0SGyR5O4OHdj-28" value="&lt;font style=&quot;color: rgb(255, 128, 0);&quot;&gt;Processo&lt;/font&gt;" style="text;html=1;align=center;verticalAlign=middle;whiteSpace=wrap;rounded=0;" vertex="1" parent="1">
          <mxGeometry x="264" y="310" width="60" height="30" as="geometry" />
        </mxCell>
        <mxCell id="zEi2aZbb0SGyR5O4OHdj-29" value="&lt;font style=&quot;color: rgb(255, 128, 0);&quot;&gt;Saída&lt;/font&gt;" style="text;html=1;align=center;verticalAlign=middle;whiteSpace=wrap;rounded=0;" vertex="1" parent="1">
          <mxGeometry x="470" y="390" width="60" height="30" as="geometry" />
        </mxCell>
        <mxCell id="zEi2aZbb0SGyR5O4OHdj-35" value="" style="edgeStyle=orthogonalEdgeStyle;rounded=0;orthogonalLoop=1;jettySize=auto;html=1;" edge="1" parent="1" source="zEi2aZbb0SGyR5O4OHdj-30" target="zEi2aZbb0SGyR5O4OHdj-34">
          <mxGeometry relative="1" as="geometry" />
        </mxCell>
        <mxCell id="zEi2aZbb0SGyR5O4OHdj-30" value="Digite três valores:&lt;div&gt;&lt;span style=&quot;white-space: pre;&quot;&gt;&#x9;&lt;/span&gt;VALOR A&lt;/div&gt;&lt;div&gt;&lt;span style=&quot;white-space: pre;&quot;&gt;&#x9;&lt;/span&gt;VALOR B&lt;/div&gt;&lt;div&gt;&lt;span style=&quot;white-space: pre;&quot;&gt;&#x9;&lt;/span&gt;VALOR C&lt;/div&gt;" style="rounded=0;whiteSpace=wrap;html=1;fillColor=none;align=left;" vertex="1" parent="1">
          <mxGeometry x="10" y="340" width="120" height="70" as="geometry" />
        </mxCell>
        <mxCell id="zEi2aZbb0SGyR5O4OHdj-38" value="" style="edgeStyle=orthogonalEdgeStyle;rounded=0;orthogonalLoop=1;jettySize=auto;html=1;" edge="1" parent="1" source="zEi2aZbb0SGyR5O4OHdj-34" target="zEi2aZbb0SGyR5O4OHdj-37">
          <mxGeometry relative="1" as="geometry" />
        </mxCell>
        <mxCell id="zEi2aZbb0SGyR5O4OHdj-34" value="Soma = VALOR A + VALOR B + VALOR C" style="whiteSpace=wrap;html=1;align=center;fillColor=none;rounded=0;" vertex="1" parent="1">
          <mxGeometry x="174" y="352.5" width="240" height="45" as="geometry" />
        </mxCell>
        <mxCell id="zEi2aZbb0SGyR5O4OHdj-40" value="" style="edgeStyle=orthogonalEdgeStyle;rounded=0;orthogonalLoop=1;jettySize=auto;html=1;" edge="1" parent="1" source="zEi2aZbb0SGyR5O4OHdj-37" target="zEi2aZbb0SGyR5O4OHdj-39">
          <mxGeometry relative="1" as="geometry" />
        </mxCell>
        <mxCell id="zEi2aZbb0SGyR5O4OHdj-37" value="Media = {Soma} / 3" style="whiteSpace=wrap;html=1;align=center;fillColor=none;rounded=0;" vertex="1" parent="1">
          <mxGeometry x="234" y="430" width="120" height="60" as="geometry" />
        </mxCell>
        <mxCell id="zEi2aZbb0SGyR5O4OHdj-39" value="A média dos valores é: {Media}" style="whiteSpace=wrap;html=1;align=center;fillColor=none;rounded=0;" vertex="1" parent="1">
          <mxGeometry x="440" y="430" width="120" height="60" as="geometry" />
        </mxCell>
        <mxCell id="zEi2aZbb0SGyR5O4OHdj-41" value="&lt;font style=&quot;color: rgb(255, 128, 0);&quot;&gt;Entrada&lt;/font&gt;" style="text;html=1;align=center;verticalAlign=middle;whiteSpace=wrap;rounded=0;" vertex="1" parent="1">
          <mxGeometry x="40" y="20" width="60" height="30" as="geometry" />
        </mxCell>
        <mxCell id="zEi2aZbb0SGyR5O4OHdj-42" value="" style="edgeStyle=orthogonalEdgeStyle;rounded=0;orthogonalLoop=1;jettySize=auto;html=1;" edge="1" parent="1" source="zEi2aZbb0SGyR5O4OHdj-43" target="zEi2aZbb0SGyR5O4OHdj-45">
          <mxGeometry relative="1" as="geometry" />
        </mxCell>
        <mxCell id="zEi2aZbb0SGyR5O4OHdj-43" value="Digite os números:&lt;div&gt;VALOR A&lt;/div&gt;&lt;div&gt;VALOR B&lt;/div&gt;" style="rounded=0;whiteSpace=wrap;html=1;fillColor=none;" vertex="1" parent="1">
          <mxGeometry x="10" y="60" width="120" height="60" as="geometry" />
        </mxCell>
        <mxCell id="zEi2aZbb0SGyR5O4OHdj-44" value="" style="edgeStyle=orthogonalEdgeStyle;rounded=0;orthogonalLoop=1;jettySize=auto;html=1;" edge="1" parent="1" source="zEi2aZbb0SGyR5O4OHdj-45" target="zEi2aZbb0SGyR5O4OHdj-46">
          <mxGeometry relative="1" as="geometry" />
        </mxCell>
        <mxCell id="zEi2aZbb0SGyR5O4OHdj-45" value="Soma = ValorA + ValorB" style="whiteSpace=wrap;html=1;rounded=0;fillColor=none;" vertex="1" parent="1">
          <mxGeometry x="190" y="75" width="150" height="30" as="geometry" />
        </mxCell>
        <mxCell id="zEi2aZbb0SGyR5O4OHdj-46" value="Exiba o resultado da {Soma}" style="whiteSpace=wrap;html=1;fillColor=none;rounded=0;" vertex="1" parent="1">
          <mxGeometry x="400" y="75" width="160" height="30" as="geometry" />
        </mxCell>
        <mxCell id="zEi2aZbb0SGyR5O4OHdj-47" value="&lt;font style=&quot;color: rgb(255, 128, 0);&quot;&gt;Processo&lt;/font&gt;" style="text;html=1;align=center;verticalAlign=middle;whiteSpace=wrap;rounded=0;" vertex="1" parent="1">
          <mxGeometry x="250" y="20" width="60" height="30" as="geometry" />
        </mxCell>
        <mxCell id="zEi2aZbb0SGyR5O4OHdj-48" value="&lt;font style=&quot;color: rgb(255, 128, 0);&quot;&gt;Saída&lt;/font&gt;" style="text;html=1;align=center;verticalAlign=middle;whiteSpace=wrap;rounded=0;" vertex="1" parent="1">
          <mxGeometry x="460" y="20" width="60" height="30" as="geometry" />
        </mxCell>
        <mxCell id="zEi2aZbb0SGyR5O4OHdj-49" value="&lt;font style=&quot;color: rgb(255, 128, 0);&quot;&gt;Entrada&lt;/font&gt;" style="text;html=1;align=center;verticalAlign=middle;whiteSpace=wrap;rounded=0;" vertex="1" parent="1">
          <mxGeometry x="40" y="170" width="60" height="30" as="geometry" />
        </mxCell>
        <mxCell id="zEi2aZbb0SGyR5O4OHdj-50" value="" style="edgeStyle=orthogonalEdgeStyle;rounded=0;orthogonalLoop=1;jettySize=auto;html=1;" edge="1" parent="1" source="zEi2aZbb0SGyR5O4OHdj-51" target="zEi2aZbb0SGyR5O4OHdj-52">
          <mxGeometry relative="1" as="geometry" />
        </mxCell>
        <mxCell id="zEi2aZbb0SGyR5O4OHdj-51" value="Digite um Nome" style="rounded=0;whiteSpace=wrap;html=1;fillColor=none;" vertex="1" parent="1">
          <mxGeometry x="10" y="210" width="120" height="30" as="geometry" />
        </mxCell>
        <mxCell id="zEi2aZbb0SGyR5O4OHdj-52" value="Nome é igual a Jonas?" style="rhombus;whiteSpace=wrap;html=1;fillColor=none;rounded=0;" vertex="1" parent="1">
          <mxGeometry x="207.5" y="167.5" width="115" height="115" as="geometry" />
        </mxCell>
        <mxCell id="zEi2aZbb0SGyR5O4OHdj-53" value="Bem vindo Jonas" style="rounded=0;whiteSpace=wrap;html=1;fillColor=none;" vertex="1" parent="1">
          <mxGeometry x="380" y="240" width="120" height="30" as="geometry" />
        </mxCell>
        <mxCell id="zEi2aZbb0SGyR5O4OHdj-54" value="Vá embora, você não é bem vindo aqui" style="rounded=0;whiteSpace=wrap;html=1;fillColor=none;" vertex="1" parent="1">
          <mxGeometry x="380" y="180" width="120" height="30" as="geometry" />
        </mxCell>
        <mxCell id="zEi2aZbb0SGyR5O4OHdj-55" value="" style="endArrow=classic;html=1;rounded=0;entryX=0;entryY=0.5;entryDx=0;entryDy=0;exitX=1;exitY=1;exitDx=0;exitDy=0;" edge="1" parent="1" source="zEi2aZbb0SGyR5O4OHdj-52" target="zEi2aZbb0SGyR5O4OHdj-53">
          <mxGeometry width="50" height="50" relative="1" as="geometry">
            <mxPoint x="390" y="250" as="sourcePoint" />
            <mxPoint x="440" y="200" as="targetPoint" />
          </mxGeometry>
        </mxCell>
        <mxCell id="zEi2aZbb0SGyR5O4OHdj-56" value="SIM" style="edgeLabel;html=1;align=center;verticalAlign=middle;resizable=0;points=[];labelBackgroundColor=none;" vertex="1" connectable="0" parent="zEi2aZbb0SGyR5O4OHdj-55">
          <mxGeometry x="-0.0222" y="-3" relative="1" as="geometry">
            <mxPoint x="1" y="-19" as="offset" />
          </mxGeometry>
        </mxCell>
        <mxCell id="zEi2aZbb0SGyR5O4OHdj-57" value="" style="endArrow=classic;html=1;rounded=0;entryX=0;entryY=0.5;entryDx=0;entryDy=0;exitX=1;exitY=0;exitDx=0;exitDy=0;" edge="1" parent="1" source="zEi2aZbb0SGyR5O4OHdj-52" target="zEi2aZbb0SGyR5O4OHdj-54">
          <mxGeometry width="50" height="50" relative="1" as="geometry">
            <mxPoint x="430" y="230" as="sourcePoint" />
            <mxPoint x="374" y="306" as="targetPoint" />
          </mxGeometry>
        </mxCell>
        <mxCell id="zEi2aZbb0SGyR5O4OHdj-58" value="NÃO" style="edgeLabel;html=1;align=center;verticalAlign=middle;resizable=0;points=[];labelBackgroundColor=none;" vertex="1" connectable="0" parent="zEi2aZbb0SGyR5O4OHdj-57">
          <mxGeometry x="-0.1537" y="-2" relative="1" as="geometry">
            <mxPoint x="12" y="-17" as="offset" />
          </mxGeometry>
        </mxCell>
        <mxCell id="zEi2aZbb0SGyR5O4OHdj-59" value="&lt;font style=&quot;color: rgb(255, 128, 0);&quot;&gt;Processo&lt;/font&gt;" style="text;html=1;align=center;verticalAlign=middle;whiteSpace=wrap;rounded=0;" vertex="1" parent="1">
          <mxGeometry x="240" y="130" width="60" height="30" as="geometry" />
        </mxCell>
        <mxCell id="zEi2aZbb0SGyR5O4OHdj-60" value="&lt;font style=&quot;color: rgb(255, 128, 0);&quot;&gt;Saída&lt;/font&gt;" style="text;html=1;align=center;verticalAlign=middle;whiteSpace=wrap;rounded=0;" vertex="1" parent="1">
          <mxGeometry x="410" y="130" width="60" height="30" as="geometry" />
        </mxCell>
        <mxCell id="zEi2aZbb0SGyR5O4OHdj-65" value="&lt;font style=&quot;color: rgb(255, 128, 0);&quot;&gt;Entrada&lt;/font&gt;" style="text;html=1;align=center;verticalAlign=middle;whiteSpace=wrap;rounded=0;" vertex="1" parent="1">
          <mxGeometry x="40" y="548" width="60" height="30" as="geometry" />
        </mxCell>
        <mxCell id="zEi2aZbb0SGyR5O4OHdj-66" value="" style="edgeStyle=orthogonalEdgeStyle;rounded=0;orthogonalLoop=1;jettySize=auto;html=1;" edge="1" parent="1" source="zEi2aZbb0SGyR5O4OHdj-67" target="zEi2aZbb0SGyR5O4OHdj-68">
          <mxGeometry relative="1" as="geometry" />
        </mxCell>
        <mxCell id="zEi2aZbb0SGyR5O4OHdj-67" value="&lt;span style=&quot;text-align: left;&quot;&gt;Digite sua idade:&lt;/span&gt;&lt;div style=&quot;text-align: left;&quot;&gt;Idade&lt;/div&gt;" style="rounded=0;whiteSpace=wrap;html=1;fillColor=none;" vertex="1" parent="1">
          <mxGeometry x="10" y="578" width="120" height="50" as="geometry" />
        </mxCell>
        <mxCell id="zEi2aZbb0SGyR5O4OHdj-68" value="Idade &amp;gt;= 18?" style="rhombus;whiteSpace=wrap;html=1;fillColor=none;rounded=0;" vertex="1" parent="1">
          <mxGeometry x="207.5" y="545.5" width="115" height="115" as="geometry" />
        </mxCell>
        <mxCell id="zEi2aZbb0SGyR5O4OHdj-69" value="É maior de idade" style="rounded=0;whiteSpace=wrap;html=1;fillColor=none;" vertex="1" parent="1">
          <mxGeometry x="380" y="618" width="120" height="30" as="geometry" />
        </mxCell>
        <mxCell id="zEi2aZbb0SGyR5O4OHdj-70" value="Não é maior de idade" style="rounded=0;whiteSpace=wrap;html=1;fillColor=none;" vertex="1" parent="1">
          <mxGeometry x="380" y="558" width="120" height="30" as="geometry" />
        </mxCell>
        <mxCell id="zEi2aZbb0SGyR5O4OHdj-71" value="" style="endArrow=classic;html=1;rounded=0;entryX=0;entryY=0.5;entryDx=0;entryDy=0;exitX=1;exitY=1;exitDx=0;exitDy=0;" edge="1" parent="1" source="zEi2aZbb0SGyR5O4OHdj-68" target="zEi2aZbb0SGyR5O4OHdj-69">
          <mxGeometry width="50" height="50" relative="1" as="geometry">
            <mxPoint x="390" y="628" as="sourcePoint" />
            <mxPoint x="440" y="578" as="targetPoint" />
          </mxGeometry>
        </mxCell>
        <mxCell id="zEi2aZbb0SGyR5O4OHdj-72" value="SIM" style="edgeLabel;html=1;align=center;verticalAlign=middle;resizable=0;points=[];labelBackgroundColor=none;" vertex="1" connectable="0" parent="zEi2aZbb0SGyR5O4OHdj-71">
          <mxGeometry x="-0.0222" y="-3" relative="1" as="geometry">
            <mxPoint x="1" y="-19" as="offset" />
          </mxGeometry>
        </mxCell>
        <mxCell id="zEi2aZbb0SGyR5O4OHdj-73" value="" style="endArrow=classic;html=1;rounded=0;entryX=0;entryY=0.5;entryDx=0;entryDy=0;exitX=1;exitY=0;exitDx=0;exitDy=0;" edge="1" parent="1" source="zEi2aZbb0SGyR5O4OHdj-68" target="zEi2aZbb0SGyR5O4OHdj-70">
          <mxGeometry width="50" height="50" relative="1" as="geometry">
            <mxPoint x="430" y="608" as="sourcePoint" />
            <mxPoint x="374" y="684" as="targetPoint" />
          </mxGeometry>
        </mxCell>
        <mxCell id="zEi2aZbb0SGyR5O4OHdj-74" value="NÃO" style="edgeLabel;html=1;align=center;verticalAlign=middle;resizable=0;points=[];labelBackgroundColor=none;" vertex="1" connectable="0" parent="zEi2aZbb0SGyR5O4OHdj-73">
          <mxGeometry x="-0.1537" y="-2" relative="1" as="geometry">
            <mxPoint x="12" y="-17" as="offset" />
          </mxGeometry>
        </mxCell>
        <mxCell id="zEi2aZbb0SGyR5O4OHdj-75" value="&lt;font style=&quot;color: rgb(255, 128, 0);&quot;&gt;Processo&lt;/font&gt;" style="text;html=1;align=center;verticalAlign=middle;whiteSpace=wrap;rounded=0;" vertex="1" parent="1">
          <mxGeometry x="240" y="518" width="60" height="30" as="geometry" />
        </mxCell>
        <mxCell id="zEi2aZbb0SGyR5O4OHdj-76" value="&lt;font style=&quot;color: rgb(255, 128, 0);&quot;&gt;Saída&lt;/font&gt;" style="text;html=1;align=center;verticalAlign=middle;whiteSpace=wrap;rounded=0;" vertex="1" parent="1">
          <mxGeometry x="410" y="518" width="60" height="30" as="geometry" />
        </mxCell>
      </root>
    </mxGraphModel>
  </diagram>
</mxfile>
